<?xml version="1.0" standalone="no"?>
<!DOCTYPE svg PUBLIC "-//W3C//DTD SVG 20010904//EN"
 "http://www.w3.org/TR/2001/REC-SVG-20010904/DTD/svg10.dtd">
<svg version="1.0" xmlns="http://www.w3.org/2000/svg"
 width="256.000000pt" height="256.000000pt" viewBox="0 0 256.000000 256.000000"
 preserveAspectRatio="xMidYMid meet">
<metadata>
Created by potrace 1.11, written by Peter Selinger 2001-2013
</metadata>
<g transform="translate(0.000000,256.000000) scale(0.100000,-0.100000)"
fill="#000000" stroke="none">
<path d="M1169 2556 c-2 -2 -29 -7 -59 -10 -438 -52 -839 -360 -1010 -777 -37
-88 -76 -232 -87 -314 -9 -76 -10 -263 -1 -337 53 -421 327 -801 713 -987 187
-91 335 -124 550 -125 114 0 202 6 235 18 8 3 31 7 50 10 58 8 190 55 280 98
129 63 235 140 345 252 250 252 379 574 369 920 -2 72 -4 151 -4 176 1 25 2
115 3 200 l2 155 -59 0 -60 0 -52 88 c-29 48 -66 105 -83 126 l-31 39 37 48
c40 53 52 68 69 87 5 7 45 58 88 115 44 56 83 105 87 108 5 3 9 23 9 45 l0 39
-57 1 c-32 0 -143 2 -248 5 -104 2 -261 6 -349 7 l-158 4 -14 -33 c-13 -31
-15 -32 -46 -22 -50 15 -172 45 -215 52 -46 8 -298 18 -304 12z"/>
</g>
</svg>
